<svg height="511pt" viewBox="1 -14 511.999 511" width="511pt" xmlns="http://www.w3.org/2000/svg"><path d="m238.304688 377.941406h35.394531v75.207032h-35.394531zm0 0" fill="#3e4151"/><path d="m238.304688 377.941406h20.601562v75.207032h-20.601562zm0 0" fill="#353744"/><path d="m473.648438.5h-435.296876c-21.148437 0-38.351562 17.203125-38.351562 38.351562v306.96875c0 21.144532 17.203125 38.347657 38.351562 38.347657h435.296876c21.148437 0 38.351562-17.203125 38.351562-38.347657 0-8.191406 0-298.636718 0-306.96875 0-21.148437-17.203125-38.351562-38.351562-38.351562zm0 0" fill="#525468"/><path d="m20.605469 345.820312c0-8.335937 0-298.78125 0-306.96875 0-21.148437 17.203125-38.351562 38.351562-38.351562h-20.605469c-21.148437 0-38.351562 17.203125-38.351562 38.351562v306.96875c0 21.144532 17.203125 38.351563 38.351562 38.351563h20.605469c-21.148437 0-38.351562-17.207031-38.351562-38.351563zm0 0" fill="#3e4151"/><path d="m473.648438 35.894531h-435.296876c-1.574218 0-2.957031 1.382813-2.957031 2.957031v306.96875c0 1.574219 1.382813 2.957032 2.957031 2.957032h435.296876c1.574218 0 2.957031-1.382813 2.957031-2.957032 0-8.832031 0-302.796874 0-306.96875 0-1.574218-1.382813-2.957031-2.957031-2.957031zm0 0" fill="#b4e1f9"/><path d="m56 345.820312c0-8.488281 0-299.226562 0-306.96875 0-1.574218 1.382812-2.957031 2.957031-2.957031h-20.605469c-1.574218 0-2.957031 1.382813-2.957031 2.957031v306.96875c0 1.574219 1.382813 2.957032 2.957031 2.957032h20.605469c-1.574219 0-2.957031-1.382813-2.957031-2.957032zm0 0" fill="#72bdf6"/><path d="m364.113281 447.902344h-216.226562c-9.488281 0-17.175781 7.691406-17.175781 17.175781v1.042969c0 9.484375 7.6875 17.175781 17.175781 17.175781h216.226562c9.488281 0 17.175781-7.691406 17.175781-17.175781v-1.042969c0-9.484375-7.6875-17.175781-17.175781-17.175781zm0 0" fill="#525468"/><path d="m364.113281 462.691406h-216.226562c-5.851563 0-11.007813-2.929687-14.109375-7.394531-1.929688 2.777344-3.066406 6.144531-3.066406 9.78125v1.042969c0 9.484375 7.6875 17.175781 17.175781 17.175781h216.226562c9.488281 0 17.175781-7.691406 17.175781-17.175781v-1.042969c0-3.636719-1.136718-7.003906-3.066406-9.78125-3.101562 4.464844-8.257812 7.394531-14.109375 7.394531zm0 0" fill="#3e4151"/><path d="m473.648438 33.835938h-435.296876c-1.574218 0-2.957031 1.378906-2.957031 2.957031v32.4375h441.210938c0-19.277344 0-31.609375 0-32.4375 0-1.578125-1.382813-2.957031-2.957031-2.957031zm0 0" fill="#4b98d4"/><path d="m70.789062 33.835938h-32.4375c-1.574218 0-2.957031 1.378906-2.957031 2.957031v32.4375h35.394531zm0 0" fill="#ed5454"/><path d="m58.914062 33.835938h-20.5625c-1.574218 0-2.957031 1.378906-2.957031 2.957031v32.4375h20.5625c0-18.734375 0-30.933594 0-32.4375 0-1.578125 1.382813-2.957031 2.957031-2.957031zm0 0" fill="#ea3f3f"/><g fill="#4b98d4"><path d="m139.414062 214.847656c-1.871093-1.871094-1.871093-4.902344 0-6.769531l50.289063-50.289063c5.882813-5.882812 5.710937-15.523437-.515625-21.1875-5.828125-5.304687-14.90625-4.792968-20.476562.78125l-63.730469 63.730469c-5.71875 5.714844-5.71875 14.980469 0 20.699219l63.730469 63.730469c5.570312 5.574219 14.648437 6.085937 20.476562.78125 6.226562-5.660157 6.398438-15.304688.515625-21.1875zm0 0"/><path d="m406.164062 201.113281-63.878906-63.882812c-5.882812-5.882813-15.523437-5.710938-21.1875.511719-5.304687 5.828124-4.792968 14.90625.78125 20.480468l49.375 49.378906c2.132813 2.132813 2.132813 5.589844 0 7.722657l-49.375 49.378906c-5.574218 5.574219-6.085937 14.652344-.78125 20.480469 5.664063 6.222656 15.304688 6.390625 21.1875.511718l63.878906-63.882812c5.71875-5.71875 5.71875-14.984375 0-20.699219zm0 0"/><path d="m214.789062 306.035156c-7.410156-3.230468-10.800781-11.855468-7.570312-19.265625l70.726562-162.308593c3.226563-7.410157 11.855469-10.800782 19.265626-7.570313 7.410156 3.226563 10.800781 11.855469 7.570312 19.265625l-70.726562 162.308594c-3.230469 7.414062-11.859376 10.796875-19.265626 7.570312zm0 0"/></g><path d="m189.316406 285.542969-63.730468-63.730469c-5.71875-5.71875-5.71875-14.984375 0-20.699219l63.730468-63.734375c.109375-.109375.226563-.203125.339844-.308594-.15625-.15625-.300781-.320312-.46875-.472656-5.828125-5.300781-14.90625-4.789062-20.476562.78125l-63.730469 63.734375c-5.71875 5.714844-5.71875 14.980469 0 20.699219l63.730469 63.730469c5.570312 5.574219 14.648437 6.085937 20.476562.78125.167969-.152344.3125-.316407.46875-.472657-.113281-.105468-.230469-.199218-.339844-.308593zm0 0" fill="#2472b2"/><path d="m341.703125 285.183594c-5.308594-5.832032-4.792969-14.90625.777344-20.480469l49.378906-49.378906c2.132813-2.132813 2.132813-5.589844 0-7.726563l-49.378906-49.375c-5.570313-5.574218-6.082031-14.652344-.777344-20.480468.175781-.195313.363281-.363282.546875-.542969-5.886719-5.847657-15.5-5.667969-21.152344.542969-5.304687 5.828124-4.792968 14.90625.78125 20.480468l49.375 49.375c2.132813 2.136719 2.132813 5.59375 0 7.726563l-49.375 49.378906c-5.574218 5.570313-6.085937 14.648437-.78125 20.480469 5.652344 6.210937 15.265625 6.390625 21.152344.539062-.183594-.179687-.371094-.347656-.546875-.539062zm0 0" fill="#2472b2"/><path d="m227.824219 286.769531 70.726562-162.308593c.761719-1.75 1.835938-3.269532 3.113281-4.535157-1.253906-1.246093-2.738281-2.289062-4.453124-3.035156-7.410157-3.230469-16.035157.160156-19.265626 7.570313l-70.726562 162.308593c-3.230469 7.410157.160156 16.035157 7.570312 19.265625 5.65625 2.464844 12.019532 1.0625 16.152344-3.035156-4.160156-4.128906-5.601562-10.535156-3.117187-16.230469zm0 0" fill="#2472b2"/></svg>