<svg viewBox="0 -10 512.00104 512" xmlns="http://www.w3.org/2000/svg"><path d="m10.226562 112.503906v265.402344c0 11.539062 9.429688 20.96875 20.96875 20.96875h286.542969c-.378906-3.355469-.574219-6.761719-.574219-10.207031 0-11.027344 1.933594-21.589844 5.484376-31.390625h-26.050782v-203.863282h101.253906v143.675782c3.804688-.480469 7.679688-.726563 11.617188-.726563 10.75 0 21.070312 1.839844 30.652344 5.214844v-189.074219zm0 0" fill="#f7f7f7"/><path d="m440.121094 31.195312v81.308594h-429.894532v-81.308594c0-11.539062 9.429688-20.96875 20.96875-20.96875h387.960938c11.535156 0 20.964844 9.429688 20.964844 20.96875zm0 0" fill="#7df5a5"/><path d="m50.789062 153.414062h204.550782v122.730469h-204.550782zm0 0" fill="#ffa3bf"/><path d="m397.851562 153.414062v143.675782c-34.835937 4.378906-63.625 28.15625-75.203124 60.1875h-26.050782v-203.863282zm0 0" fill="#ffc954"/><path d="m501.773438 388.667969c0 50.972656-41.332032 92.300781-92.304688 92.300781-47.527344 0-86.667969-35.917969-91.730469-82.09375-.378906-3.355469-.574219-6.761719-.574219-10.207031 0-11.027344 1.933594-21.589844 5.484376-31.390625 11.578124-32.03125 40.367187-55.808594 75.203124-60.1875 3.804688-.480469 7.679688-.726563 11.617188-.726563 10.75 0 21.070312 1.839844 30.652344 5.214844 35.910156 12.632813 61.652344 46.855469 61.652344 87.089844zm0 0" fill="#7df5a5"/><path d="m195.34375 71.933594h202.503906c5.648438 0 10.226563-4.578125 10.226563-10.226563 0-5.648437-4.578125-10.226562-10.226563-10.226562h-202.503906c-5.648438 0-10.230469 4.578125-10.230469 10.226562 0 5.648438 4.582031 10.226563 10.230469 10.226563zm0 0"/><path d="m52.261719 65.621094c.257812.613281.574219 1.207031.941406 1.757812.367187.5625.796875 1.085938 1.269531 1.554688.46875.472656.992188.902344 1.554688 1.28125.550781.367187 1.144531.683594 1.769531.941406.613281.253906 1.257813.449219 1.910156.582031.65625.132813 1.332031.195313 1.996094.195313s1.339844-.0625 1.992187-.195313c.65625-.132812 1.300782-.328125 1.925782-.582031.613281-.257812 1.207031-.574219 1.757812-.941406.5625-.378906 1.085938-.808594 1.554688-1.28125.472656-.46875.902344-.992188 1.269531-1.554688.378906-.550781.683594-1.144531.941406-1.757812.253907-.625.457031-1.269532.582031-1.914063.132813-.664062.203126-1.339843.203126-2.003906s-.070313-1.339844-.203126-1.992187c-.125-.65625-.328124-1.300782-.582031-1.914063-.257812-.625-.5625-1.214844-.941406-1.769531-.367187-.5625-.796875-1.082032-1.269531-1.554688-.46875-.46875-.992188-.898437-1.554688-1.265625-.550781-.367187-1.144531-.6875-1.757812-.941406-.625-.257813-1.269532-.449219-1.925782-.585937-1.308593-.265626-2.667968-.265626-3.988281 0-.652343.136718-1.296875.328124-1.910156.585937-.625.253906-1.21875.574219-1.769531.941406-.5625.367188-1.085938.796875-1.554688 1.265625-.472656.472656-.902344.992188-1.269531 1.554688-.367187.554687-.683594 1.144531-.941406 1.769531-.253907.613281-.457031 1.257813-.582031 1.914063-.132813.652343-.203126 1.328124-.203126 1.992187s.070313 1.339844.203126 2.003906c.121093.644531.328124 1.289063.582031 1.914063zm0 0"/><path d="m93.171875 65.621094c.257813.613281.574219 1.207031.941406 1.757812.367188.5625.796875 1.085938 1.269531 1.554688.46875.472656.992188.902344 1.554688 1.28125.550781.367187 1.144531.683594 1.769531.941406.613281.253906 1.257813.449219 1.910157.582031.65625.132813 1.332031.195313 1.996093.195313.664063 0 1.339844-.0625 1.992188-.195313.65625-.132812 1.300781-.328125 1.925781-.582031.613281-.257812 1.207031-.574219 1.757812-.941406.5625-.378906 1.085938-.808594 1.554688-1.28125.472656-.46875.902344-.992188 1.28125-1.554688.363281-.550781.671875-1.144531.929688-1.757812.253906-.625.457031-1.269532.582031-1.914063.132812-.664062.203125-1.339843.203125-2.003906s-.070313-1.339844-.203125-1.992187c-.125-.65625-.328125-1.300782-.582031-1.914063-.257813-.625-.566407-1.214844-.929688-1.769531-.378906-.5625-.808594-1.082032-1.28125-1.554688-.46875-.46875-.992188-.898437-1.554688-1.265625-.550781-.367187-1.144531-.6875-1.757812-.941406-.625-.257813-1.269531-.449219-1.925781-.585937-1.308594-.265626-2.667969-.265626-3.988281 0-.652344.136718-1.296876.328124-1.910157.585937-.625.253906-1.21875.574219-1.769531.941406-.5625.367188-1.085938.796875-1.554688 1.265625-.472656.472656-.902343.992188-1.269531 1.554688-.367187.554687-.683593 1.144531-.941406 1.769531-.253906.613281-.457031 1.257813-.582031 1.914063-.132813.652343-.203125 1.328124-.203125 1.992187s.070312 1.339844.203125 2.003906c.132812.644531.328125 1.289063.582031 1.914063zm0 0"/><path d="m134.082031 65.621094c.257813.613281.5625 1.207031.929688 1.757812.378906.5625.808593 1.085938 1.28125 1.554688.46875.472656.992187.902344 1.554687 1.28125.550782.367187 1.144532.683594 1.769532.941406.613281.253906 1.257812.449219 1.910156.582031.65625.132813 1.332031.195313 1.996094.195313 2.6875 0 5.328124-1.085938 7.230468-3 .46875-.46875.898438-.992188 1.269532-1.554688.367187-.550781.683593-1.144531.9375-1.757812.257812-.625.460937-1.269532.582031-1.914063.132812-.664062.207031-1.339843.207031-2.003906s-.074219-1.339844-.207031-1.996094c-.121094-.652343-.324219-1.296875-.582031-1.910156-.253907-.625-.5625-1.21875-.9375-1.769531-.371094-.5625-.800782-1.085938-1.269532-1.554688-2.371094-2.375-5.902344-3.46875-9.226562-2.792968-.65625.132812-1.296875.328124-1.914063.582031-.621093.257812-1.214843.574219-1.765625.941406-.5625.371094-1.085937.796875-1.558594 1.269531-.46875.46875-.898437.992188-1.277343 1.554688-.367188.550781-.671875 1.144531-.929688 1.769531-.253906.613281-.460937 1.257813-.582031 1.910156-.132812.65625-.203125 1.332031-.203125 1.996094s.070313 1.339844.203125 2.003906c.121094.644531.328125 1.289063.582031 1.914063zm0 0"/><path d="m255.34375 306.828125h-88.464844c-5.644531 0-10.226562 4.578125-10.226562 10.226563 0 5.648437 4.582031 10.226562 10.226562 10.226562h88.464844c5.648438 0 10.226562-4.578125 10.226562-10.226562 0-5.648438-4.578124-10.226563-10.226562-10.226563zm0 0"/><path d="m50.792969 327.28125h34.265625c5.648437 0 10.230468-4.578125 10.230468-10.226562 0-5.648438-4.582031-10.226563-10.230468-10.226563h-34.265625c-5.648438 0-10.226563 4.578125-10.226563 10.226563 0 5.648437 4.578125 10.226562 10.226563 10.226562zm0 0"/><path d="m255.34375 347.734375h-204.550781c-5.648438 0-10.226563 4.582031-10.226563 10.230469 0 5.648437 4.578125 10.226562 10.226563 10.226562h204.550781c5.648438 0 10.226562-4.578125 10.226562-10.226562 0-5.648438-4.578124-10.230469-10.226562-10.230469zm0 0"/><path d="m265.53125 152.613281c-.007812-.140625-.019531-.273437-.035156-.410156-.023438-.191406-.054688-.382813-.089844-.574219-.027344-.148437-.050781-.296875-.085938-.441406-.035156-.167969-.082031-.335938-.128906-.5-.046875-.167969-.09375-.332031-.144531-.496094-.050781-.140625-.101563-.28125-.15625-.425781-.070313-.179687-.140625-.359375-.222656-.535156-.054688-.125-.117188-.246094-.179688-.371094-.089843-.183594-.1875-.363281-.289062-.542969-.03125-.050781-.054688-.109375-.085938-.164062-.039062-.066406-.089843-.125-.128906-.191406-.105469-.164063-.210937-.324219-.324219-.480469-.09375-.132813-.1875-.261719-.289062-.386719-.097656-.125-.199219-.25-.304688-.371094-.121094-.140625-.246094-.277344-.375-.410156-.09375-.097656-.191406-.191406-.292968-.289062-.140626-.132813-.285157-.265626-.4375-.394532-.097657-.085937-.203126-.167968-.308594-.25-.152344-.121094-.304688-.238281-.460938-.347656-.121094-.082031-.246094-.160156-.367187-.242188-.148438-.09375-.296875-.183593-.449219-.269531-.144531-.082031-.296875-.160156-.449219-.238281-.136719-.066406-.269531-.132812-.40625-.195312-.175781-.078126-.351562-.148438-.527343-.214844-.125-.046875-.253907-.097656-.382813-.140625-.183594-.0625-.371094-.117188-.558594-.167969-.132812-.039062-.265625-.074219-.402343-.105469-.179688-.039062-.359376-.074219-.539063-.105469-.160156-.027343-.320313-.054687-.476563-.074218-.160156-.019532-.320312-.035156-.484374-.046875-.1875-.015625-.378907-.027344-.570313-.03125-.078125 0-.15625-.011719-.234375-.011719h-204.550781c-.082031 0-.160157.011719-.242188.011719-.1875.007812-.375.015625-.5625.03125-.164062.011719-.328125.027343-.488281.046875-.15625.023437-.3125.046875-.46875.074218-.183594.03125-.367188.066407-.546875.109376-.132813.03125-.265625.0625-.398437.101562-.1875.050781-.378907.105469-.566407.171875-.125.042969-.25.089844-.375.136719-.175781.070312-.355469.140625-.53125.21875-.132812.058594-.269531.125-.402343.191406-.152344.078125-.304688.15625-.453126.238281-.152343.085938-.296874.179688-.445312.269531-.125.082032-.25.160157-.371094.242188-.15625.109375-.308594.226562-.460937.347656-.105469.082032-.207031.164063-.308594.25-.152344.128906-.296875.261719-.4375.398438-.101563.09375-.199219.191406-.292969.289062-.128906.132813-.253906.269532-.375.410156-.105468.121094-.207031.242188-.304687.367188-.101563.128906-.195313.257812-.289063.386719-.113281.160156-.21875.316406-.320312.480469-.042969.066406-.089844.125-.132813.191406-.03125.054687-.054687.113281-.085937.164062-.101563.179688-.199219.359375-.289063.542969-.0625.125-.125.25-.179687.371094-.082032.175781-.152344.355469-.21875.535156-.054688.144531-.109375.285156-.15625.425781-.054688.164063-.101563.328125-.148438.496094-.046875.164062-.089844.332031-.128906.5-.035156.148438-.058594.292969-.085938.441406-.035156.191406-.0625.382813-.085937.574219-.019531.136719-.027344.273437-.039063.410156-.015624.203125-.027343.410157-.03125.617188 0 .0625-.011718.121093-.011718.183593v122.730469c0 .0625.011718.121094.011718.183594.003907.207031.015626.410156.03125.617187.011719.136719.019532.273438.039063.40625.019531.191407.050781.382813.085937.574219.027344.148438.050782.296875.085938.445313.039062.167968.082031.332031.128906.5.046875.164062.09375.332031.148438.492187.046875.144531.097656.285157.15625.425781.066406.183594.136718.359376.21875.535157.054687.125.117187.25.179687.371093.089844.1875.1875.367188.289063.542969.03125.054688.054687.109375.085937.164063.03125.050781.070313.09375.097657.140625.179687.289062.371093.5625.574218.828125.054688.070312.105469.148437.164063.21875.242187.296875.503906.582031.777343.851562.097657.09375.203126.183594.300782.273438.195312.175781.394531.347656.601562.507812.117188.089844.234375.179688.355469.261719.246094.179687.503906.339844.765625.492187.074219.042969.140625.089844.210938.128907.347656.191406.703124.359375 1.070312.507812.078125.03125.15625.054688.234375.085938.296875.113281.597656.210937.902344.292969.109375.03125.21875.058593.324219.085937.285156.066406.578124.125.871093.167969.113281.015625.222657.035156.335938.050781.355469.039063.714843.0625 1.078125.066406.039062 0 .078125.007813.117187.007813h.027344 204.472656.03125c.035157 0 .074219-.007813.113281-.007813.363282-.003906.722657-.027343 1.078126-.066406.113281-.015625.222656-.035156.332031-.050781.296875-.042969.589843-.101563.875-.167969.109375-.027344.214843-.054687.324219-.082031.308593-.085938.613281-.183594.910156-.300782.074218-.027343.152344-.050781.226562-.082031.367188-.148437.726563-.316406 1.074219-.507812.066406-.039063.128906-.082031.195313-.121094.269531-.15625.53125-.320313.785156-.5.113281-.085937.230468-.171875.34375-.257813.210937-.164062.414062-.335937.609375-.515624.101562-.089844.199219-.175782.296875-.269532.277344-.269531.535156-.554687.78125-.851562.054687-.070313.105468-.144532.160156-.214844.207031-.265625.398438-.542969.574219-.828125.03125-.050781.070312-.09375.097656-.140625.035156-.054688.058594-.113281.089844-.167969.101562-.175781.195312-.355469.289062-.539062.0625-.125.121094-.25.179688-.375.078125-.171875.148437-.351563.21875-.53125.054687-.144531.109375-.285157.15625-.425781.054687-.164063.101562-.332032.148437-.496094.046875-.164063.089844-.332032.128906-.5.03125-.148438.058594-.296875.082032-.445313.035156-.191406.066406-.378906.089844-.570312.015624-.136719.027343-.273438.039062-.410157.015625-.207031.027344-.410156.03125-.617187 0-.0625.007812-.121094.007812-.183594v-122.730469c0-.0625-.007812-.121093-.007812-.183593-.003906-.207031-.015625-.414063-.03125-.617188zm-204.507812 18.863281 72.167968 43.300782-72.167968 43.300781zm26.695312-7.835937h130.699219l-65.351563 39.210937zm65.351562 63.066406 65.351563 39.210938h-130.703125zm19.878907-11.929687 72.167969-43.300782v86.601563zm0 0"/><path d="m440.40625 378.589844h-20.625v-20.625c0-5.648438-4.578125-10.230469-10.226562-10.230469-5.648438 0-10.226563 4.582031-10.226563 10.230469v20.625h-20.625c-5.648437 0-10.230469 4.578125-10.230469 10.226562 0 5.648438 4.582032 10.226563 10.230469 10.226563h20.625v20.625c0 5.648437 4.578125 10.230469 10.226563 10.230469 5.648437 0 10.226562-4.582032 10.226562-10.230469v-20.625h20.625c5.648438 0 10.230469-4.578125 10.230469-10.226563 0-5.648437-4.582031-10.226562-10.230469-10.226562zm0 0"/><path d="m450.347656 294.648438v-263.453126c0-17.199218-13.992187-31.195312-31.191406-31.195312h-387.960938c-17.199218 0-31.195312 13.996094-31.195312 31.195312v346.710938c0 17.199219 13.996094 31.195312 31.195312 31.195312h277.792969c9.496094 46.777344 50.941407 82.097657 100.480469 82.097657 56.535156 0 102.53125-45.996094 102.53125-102.53125 0-42.015625-25.402344-78.199219-61.652344-94.019531zm-419.152344-274.191407h387.960938c5.921875 0 10.738281 4.816407 10.738281 10.738281v71.082032h-409.441406v-71.082032c0-5.921874 4.820313-10.738281 10.742187-10.738281zm-10.742187 357.449219v-255.175781h409.441406v165.449219c-6.605469-1.339844-13.433593-2.042969-20.425781-2.042969-.464844 0-.925781.011719-1.390625.015625v-132.738282c0-5.648437-4.578125-10.226562-10.226563-10.226562h-101.253906c-5.644531 0-10.226562 4.578125-10.226562 10.226562v203.863282c0 5.648437 4.582031 10.230468 10.226562 10.230468h12.542969c-1.441406 6.824219-2.199219 13.894532-2.203125 21.136719h-275.742188c-5.921874 0-10.742187-4.816406-10.742187-10.738281zm295.320313-30.855469h-8.945313v-183.410156h80.796875v124.84375c-32.164062 7.007813-58.738281 29.152344-71.851562 58.566406zm93.695312 123.691407c-45.257812 0-82.074219-36.820313-82.074219-82.074219 0-45.257813 36.816407-82.078125 82.074219-82.078125s82.078125 36.820312 82.078125 82.078125c0 45.253906-36.820313 82.074219-82.078125 82.074219zm0 0"/><path d="m117.125 322.738281c.367188.5625.796875 1.085938 1.269531 1.558594.46875.46875.992188.898437 1.554688 1.265625s1.15625.6875 1.769531.941406c.613281.257813 1.257812.449219 1.910156.582032.65625.132812 1.332032.207031 1.996094.207031.675781 0 1.339844-.074219 2.003906-.207031.65625-.132813 1.300782-.324219 1.914063-.582032.613281-.253906 1.207031-.574218 1.769531-.941406.550781-.367188 1.074219-.796875 1.554688-1.265625.46875-.472656.886718-.996094 1.265624-1.558594.367188-.550781.6875-1.144531.941407-1.765625.257812-.617187.449219-1.257812.582031-1.914062s.207031-1.328125.207031-1.992188c0-.667968-.074219-1.339844-.207031-2.007812-.132812-.640625-.324219-1.285156-.582031-1.910156-.253907-.613282-.574219-1.207032-.941407-1.757813-.367187-.5625-.796874-1.085937-1.265624-1.558594-.480469-.480469-1.003907-.898437-1.554688-1.277343-.566406-.367188-1.15625-.683594-1.769531-.941407-.613281-.253906-1.257813-.449219-1.914063-.582031-1.320312-.265625-2.679687-.265625-4 0-.652344.132812-1.296875.328125-1.910156.582031-.613281.257813-1.21875.574219-1.769531.941407-.5625.378906-1.085938.796874-1.554688 1.277343-.472656.472657-.902343.996094-1.269531 1.558594-.367188.550781-.683594 1.144531-.9375 1.757813-.257812.625-.453125 1.269531-.585938 1.910156-.132812.667968-.203124 1.339844-.203124 2.007812 0 .664063.070312 1.339844.203124 1.992188.132813.65625.328126 1.300781.585938 1.914062.253906.621094.570312 1.214844.9375 1.765625zm0 0"/></svg>